<svg width="512" height="512" viewBox="0 0 1254 1254" xmlns="http://www.w3.org/2000/svg" role="img" aria-label="Ícone da borboleta Camila Fernandes">
  <rect width="1254" height="1254" fill="#FC87B5"/>
  <path d="M 323.0 277.0 L 310.0 284.0 L 303.0 291.0 L 297.0 301.0 L 291.0 325.0 L 290.0 353.0 L 293.0 385.0 L 303.0 432.0 L 316.0 470.0 L 334.0 508.0 L 349.0 532.0 L 368.0 555.0 L 401.0 582.0 L 423.0 594.0 L 452.0 605.0 L 512.0 617.0 L 511.0 620.0 L 489.0 626.0 L 460.0 640.0 L 437.0 657.0 L 419.0 677.0 L 406.0 700.0 L 398.0 727.0 L 397.0 756.0 L 401.0 777.0 L 416.0 808.0 L 431.0 824.0 L 453.0 837.0 L 472.0 842.0 L 494.0 842.0 L 504.0 840.0 L 525.0 831.0 L 538.0 822.0 L 565.0 794.0 L 590.0 755.0 L 604.0 726.0 L 615.0 697.0 L 626.0 655.0 L 632.0 607.0 L 630.0 548.0 L 620.0 499.0 L 605.0 460.0 L 577.0 412.0 L 540.0 367.0 L 501.0 332.0 L 462.0 306.0 L 414.0 284.0 L 384.0 276.0 L 361.0 273.0 L 345.0 273.0 Z M 928.0 269.0 L 918.0 267.0 L 896.0 268.0 L 882.0 271.0 L 852.0 282.0 L 821.0 298.0 L 798.0 313.0 L 763.0 342.0 L 729.0 379.0 L 700.0 421.0 L 677.0 467.0 L 662.0 512.0 L 654.0 554.0 L 651.0 598.0 L 654.0 647.0 L 665.0 699.0 L 682.0 743.0 L 698.0 773.0 L 713.0 796.0 L 728.0 815.0 L 748.0 835.0 L 758.0 842.0 L 770.0 847.0 L 782.0 848.0 L 794.0 843.0 L 799.0 834.0 L 798.0 828.0 L 792.0 820.0 L 770.0 803.0 L 747.0 780.0 L 729.0 757.0 L 716.0 736.0 L 703.0 709.0 L 693.0 680.0 L 689.0 662.0 L 690.0 645.0 L 699.0 634.0 L 714.0 629.0 L 740.0 631.0 L 766.0 640.0 L 787.0 654.0 L 796.0 663.0 L 806.0 677.0 L 816.0 701.0 L 822.0 731.0 L 827.0 741.0 L 833.0 747.0 L 842.0 751.0 L 855.0 749.0 L 863.0 741.0 L 866.0 730.0 L 865.0 716.0 L 862.0 706.0 L 849.0 683.0 L 821.0 653.0 L 802.0 639.0 L 776.0 626.0 L 775.0 623.0 L 808.0 618.0 L 831.0 611.0 L 849.0 603.0 L 867.0 592.0 L 881.0 581.0 L 908.0 551.0 L 921.0 531.0 L 935.0 504.0 L 953.0 456.0 L 964.0 410.0 L 968.0 378.0 L 968.0 337.0 L 963.0 310.0 L 956.0 293.0 L 944.0 278.0 Z M 902.0 335.0 L 910.0 343.0 L 916.0 358.0 L 915.0 389.0 L 907.0 416.0 L 893.0 445.0 L 878.0 468.0 L 865.0 484.0 L 830.0 517.0 L 788.0 545.0 L 736.0 569.0 L 705.0 579.0 L 685.0 583.0 L 684.0 567.0 L 688.0 539.0 L 702.0 490.0 L 722.0 448.0 L 752.0 405.0 L 787.0 370.0 L 813.0 351.0 L 833.0 340.0 L 854.0 332.0 L 868.0 329.0 L 887.0 329.0 Z" fill="#FFFFFF" fill-rule="evenodd"/>
</svg>
